<svg id="Flat" height="512" viewBox="0 0 512 512" width="512" xmlns="http://www.w3.org/2000/svg"><path d="m317.798 407.118h80v63.859h-80z" fill="#b75382" transform="matrix(-.924 .383 -.383 -.924 856.377 707.751)"/><path d="m252.721 352.609 61.972 86.9 73.91-30.615-17.625-105.269c-36.662-18.366-61.9-39.895-70.632-65.994l-44.346 18.369c13.029 29.468 8.6 62.318-3.279 96.609z" fill="#fcb442"/><path d="m340.146 333.715a24.032 24.032 0 0 0 -23.446-14.791l-31.139-75.165-14.782 6.123 31.144 75.178a24.038 24.038 0 0 0 -6.124 27.024 24 24 0 0 0 44.347-18.369zm-19.112 16.575a8.007 8.007 0 0 1 -10.453-4.329 8 8 0 1 1 10.453 4.329z" fill="#fc8d36"/><path d="m416 200h-320a8 8 0 0 1 0-16h320a8 8 0 0 1 0 16z" fill="#757c80"/><path d="m136 408a8 8 0 0 1 -8-8v-112a104.118 104.118 0 0 1 104-104h48a88.1 88.1 0 0 0 88-88v-64a8 8 0 0 1 16 0v64a104.118 104.118 0 0 1 -104 104h-48a88.1 88.1 0 0 0 -88 88v112a8 8 0 0 1 -8 8z" fill="#757c80"/><path d="m232 168h48v48h-48z" fill="#fcb442" transform="matrix(-1 0 0 -1 512 384)"/><path d="m280 224h-48a8 8 0 0 1 -8-8v-48a8 8 0 0 1 8-8h48a8 8 0 0 1 8 8v48a8 8 0 0 1 -8 8zm-40-16h32v-32h-32z" fill="#2b70a8"/><path d="m112 352h48v48h-48z" fill="#fcb442" transform="matrix(-1 0 0 -1 272 752)"/><path d="m160 408h-48a8 8 0 0 1 -8-8v-48a8 8 0 0 1 8-8h48a8 8 0 0 1 8 8v48a8 8 0 0 1 -8 8zm-40-16h32v-32h-32z" fill="#2b70a8"/><path d="m352 32h48v48h-48z" fill="#fcb442" transform="matrix(-1 0 0 -1 752 112)"/><g fill="#2b70a8"><path d="m400 88h-48a8 8 0 0 1 -8-8v-48a8 8 0 0 1 8-8h48a8 8 0 0 1 8 8v48a8 8 0 0 1 -8 8zm-40-16h32v-32h-32z"/><circle cx="416" cy="192" r="24"/><circle cx="96" cy="192" r="24"/></g></svg>